<svg id="Layer_1" data-name="Layer 1" xmlns="http://www.w3.org/2000/svg" width="116.03mm" height="102mm" viewBox="0 0 328.92 289.13"><title>LOGO</title><path d="M169.2,7.44c21.93,1.75,41.59,8.69,60.62,17.94,23.36,11.34,39.11,29.83,50,52.76C282,82.61,282.34,88,283.1,93c.16,1.08-1.45,2.43-2.24,3.66-.7-1.17-2-2.33-2-3.52-.16-8.33-3.76-15.34-7.68-22.41C256.83,44.87,234,30,207,20.29c-17.53-6.33-35.52-8.95-54.05-8.91-8.39,0-15.87,3.33-23.27,6.55C81.89,38.7,46.65,72.23,26,120.42c-2.12,4.93-3.68,10.09-5.43,15.16a30,30,0,0,0-.75,3.89c2.48,0,4.44,0,6.4,0l233.89-4.59c8.37-.16,16.74-.47,25.11-.55,2.73,0,4.16-.75,5-3.69,2.83-9.74,10.51-15.18,19.68-14.48,5.12.39,8.85,3.19,11.94,7a30.88,30.88,0,0,1,6.56,16.11,58.83,58.83,0,0,1-6,35c-11.26,21.59-24.21,42.1-42.67,58.38S241,261.16,216.91,266.82c-4.8,1.13-9.41,3.3-13.93,5.37-26.35,12.07-53.85,18.54-82.92,16.6-31.46-2.1-59.22-13-81-36.55C18.08,229.48,9.69,202,10.21,171.4c.13-7.22-.53-14.45-.72-21.68-.07-2.73-1.65-3.14-3.89-3.4S0,147.16,0,143.67c0-3.15,3.17-3.37,5.75-3.35,2.25,0,3.49-.79,3.53-3.25C10,96.29,30.9,65.43,58.54,38.15c20.11-19.85,45-29.5,73-30.58,13.24-.52,25.91-3.76,38.85-5.68,31.58-4.68,61.88-1.08,89.77,15.44,27.16,16.09,43.79,39.94,50.46,70.75.46,2.12,2.19,4.83-1.1,6-.38.14-2.6-3.13-3-5-3.37-15-9.22-28.78-18.48-41C270.09,24.38,245.86,11.42,217,6.42A139.06,139.06,0,0,0,173.37,6c-1,.14-2,.38-2.94.61C170.22,6.65,170,6.86,169.2,7.44Zm60.67,249.84.37.63a37.89,37.89,0,0,0,3.78-1.23,160.34,160.34,0,0,0,42.51-27c14.58-12.92,25.37-28.81,35.35-45.33,5.59-9.26,10.59-18.73,12-29.65,1.28-10,1.15-19.81-5.21-28.36-5.93-8-15.73-7.93-21.45.12-1.36,1.9-1.76,4.48-2.6,6.75,2.14.28,4.32,1,6.41.76,4.54-.46,8.05,1.18,10,5,2.09,4.1,2,8.75-.79,12.44a9.49,9.49,0,0,1-6.62,3.18c-7.23.12-14.47-.58-21.71-.78q-112-3.11-224.1-6.15c-12.11-.33-24.23-.52-36.35-.93-2.79-.09-4.32.73-4.42,3.61-.21,5.83-1.08,11.73-.41,17.46s2.67,11.15,4.45,16.6c6.72,20.53,18,37.83,36.16,50.1,21.74,14.71,45.85,23.76,71.4,29,21.39,4.39,43,2.73,64.64,2.06,12.36-.38,22.94-4.52,33-11.43,34.49-23.64,60.23-54.07,74.53-93.71.57-1.57,2.38-2.7,3.6-4,.14,1.93.92,4.1.33,5.77C291.51,199.47,268,229,236.33,252.43,234.16,254,232,255.66,229.87,257.28Zm-35.93,13.93-.31-.77c-3.47,0-6.95-.23-10.4,0-35.17,2.62-69-2.49-101.22-17.23-13.58-6.21-26.5-13.41-37.74-23.41-13-11.55-20.93-26.23-26.85-42.24-.42-1.13-1-2.22-1.48-3.32l-1.11.36c.73,4.78,1.29,9.6,2.23,14.34,9,45.4,43.71,75.83,88.32,83.61,27,4.7,53.26,1.38,79-7.59C187.58,273.86,190.74,272.47,193.94,271.21ZM128.42,12.45a19.74,19.74,0,0,0-2.76-.12c-20.85,2.19-39.87,9.07-56.37,22.24-14.91,11.9-26.5,26.67-36.87,42.57A112.8,112.8,0,0,0,14,130.38c-.21,2.56,0,5.15,0,7.73C33.27,78.83,72.61,38.33,128.42,12.45ZM295,141.36c.75,5.61,1.95,7,5.35,6.46,2.29-.39,4.21-1.22,3.51-4.12S299.81,140,295,141.36Zm-3.32,6.5c-.62-2.16-.72-3.46-1.35-4.42s-2-2.43-2.7-2.25a36.29,36.29,0,0,0-6.13,2.81c.57,1,1,2.58,1.74,2.77A70.36,70.36,0,0,0,291.72,147.86Z"/><path d="M123.47,125.1V78.46l-20.72,36.08H99.47L78.75,78.46V125.1h-5.6V68.3h5.76l22.16,38.88L123.39,68.3h5.68v56.8Z"/><path d="M160.91,68.3h4.72l23.6,56.8h-5.92L176,107.34H150.43l-7.28,17.76h-6Zm13.76,34.64L163.23,74.86l-11.6,28.08Z"/><path d="M197.39,125.1V68.3h19.28a29.31,29.31,0,0,1,11.88,2.24A24.24,24.24,0,0,1,237,76.62a25.63,25.63,0,0,1,5.12,9,34.48,34.48,0,0,1,1.72,11A33.86,33.86,0,0,1,242,108.34a25.41,25.41,0,0,1-5.48,9,24.49,24.49,0,0,1-8.56,5.76,29.5,29.5,0,0,1-11.24,2Zm40.88-28.48a29.37,29.37,0,0,0-1.44-9.4,21.28,21.28,0,0,0-4.2-7.4A18.82,18.82,0,0,0,225.87,75a23.22,23.22,0,0,0-9.2-1.72H203v46.88h13.68a22.69,22.69,0,0,0,9.32-1.8,18.91,18.91,0,0,0,6.76-5,21.39,21.39,0,0,0,4.12-7.44A29.9,29.9,0,0,0,238.27,96.62Z"/><path d="M88.29,176.83a12.35,12.35,0,0,0-4.56-3.13,16.63,16.63,0,0,0-6.5-1.2q-5.36,0-7.81,2A6.78,6.78,0,0,0,67,180a6.06,6.06,0,0,0,.66,3,5.65,5.65,0,0,0,2,2,14.18,14.18,0,0,0,3.51,1.48q2.13.63,5,1.26A55.65,55.65,0,0,1,84,189.31a16.84,16.84,0,0,1,4.42,2.14,8.78,8.78,0,0,1,2.79,3.11,9.62,9.62,0,0,1,1,4.56A10.23,10.23,0,0,1,91.14,204a9.62,9.62,0,0,1-3,3.42,13.35,13.35,0,0,1-4.62,2,25,25,0,0,1-5.87.65,24.09,24.09,0,0,1-16.24-5.87l2-3.25a16,16,0,0,0,2.6,2.17,18.42,18.42,0,0,0,3.36,1.79,20.29,20.29,0,0,0,4,1.2,22,22,0,0,0,4.45.43,13.92,13.92,0,0,0,7.55-1.74A5.86,5.86,0,0,0,88,199.52a6.1,6.1,0,0,0-.77-3.17,6.85,6.85,0,0,0-2.31-2.22,16.07,16.07,0,0,0-3.82-1.62q-2.28-.69-5.3-1.37c-2.13-.49-4-1-5.59-1.54a15,15,0,0,1-4-2,7.68,7.68,0,0,1-2.47-2.87,9.2,9.2,0,0,1-.83-4.14,11.38,11.38,0,0,1,1.05-5,9.77,9.77,0,0,1,3-3.65,14,14,0,0,1,4.56-2.22,20.28,20.28,0,0,1,5.81-.77,19.78,19.78,0,0,1,7.21,1.22,19.47,19.47,0,0,1,5.73,3.45Z"/><path d="M127.68,172.79H113.26v36.93h-4V172.79H94.85v-3.54h32.83Z"/><path d="M133.72,209.72V169.25h4v40.47Z"/><path d="M176.58,172.79H162.16v36.93h-4V172.79H143.75v-3.54h32.83Z"/><path d="M178.06,189.2a21.57,21.57,0,0,1,1.29-7.27,20.15,20.15,0,0,1,3.73-6.47,19.18,19.18,0,0,1,6-4.64,18,18,0,0,1,8.15-1.8,16.89,16.89,0,0,1,9.26,2.45,15,15,0,0,1,5.68,6.39l-3.14,1.94a11.87,11.87,0,0,0-2.36-3.37,13.3,13.3,0,0,0-3-2.22,12.67,12.67,0,0,0-3.3-1.23,16.32,16.32,0,0,0-3.37-.37,13.51,13.51,0,0,0-6.44,1.49,14.76,14.76,0,0,0-4.7,3.87,17.07,17.07,0,0,0-2.88,5.39,19.76,19.76,0,0,0-1,6.07,18,18,0,0,0,1.17,6.44,18.39,18.39,0,0,0,3.19,5.44,15.52,15.52,0,0,0,4.79,3.77,13.16,13.16,0,0,0,6,1.39,14.82,14.82,0,0,0,3.5-.43,13.52,13.52,0,0,0,3.48-1.36,14.77,14.77,0,0,0,3.1-2.34,12.16,12.16,0,0,0,2.4-3.39l3.3,1.71a12.25,12.25,0,0,1-2.73,4,18.12,18.12,0,0,1-3.93,2.93,19.82,19.82,0,0,1-4.59,1.83,19.33,19.33,0,0,1-4.76.62,16.14,16.14,0,0,1-7.64-1.82,20.14,20.14,0,0,1-6-4.76,22.12,22.12,0,0,1-3.9-6.67A21.57,21.57,0,0,1,178.06,189.2Z"/><path d="M251.76,169.25v40.47h-3.93V190.8h-24v18.92h-4V169.25h4v18h24v-18Z"/></svg>